<svg width="15" height="7" viewBox="0 0 15 7" fill="none" xmlns="http://www.w3.org/2000/svg">
<g opacity="0.7">
<path d="M13.8748 3.96477C9.38091 7.74962 4.82373 7.74978 0.329707 3.96477C0.163551 3.82503 0.0683594 3.61979 0.0683594 3.40174C0.0683594 3.18369 0.163551 2.97846 0.329707 2.83856C2.57664 0.946292 4.83937 0 7.10224 0C9.36512 0 11.6278 0.946292 13.8748 2.83872C14.0409 2.97862 14.1361 3.18369 14.1361 3.40174C14.1361 3.61979 14.0409 3.82487 13.8748 3.96477ZM7.10224 0.941603C5.74564 0.941603 4.64195 2.0453 4.64195 3.40174C4.64195 4.75819 5.74564 5.86204 7.10224 5.86204C8.45885 5.86204 9.56238 4.75835 9.56238 3.40174C9.56238 2.04514 8.45885 0.941603 7.10224 0.941603Z" fill="#F5F0F1"/>
<path d="M7.10423 2.30759C7.70852 2.30759 8.19839 2.79746 8.19839 3.40175C8.19839 4.00604 7.70852 4.49591 7.10423 4.49591C6.49994 4.49591 6.01007 4.00604 6.01007 3.40175C6.01007 2.79746 6.49994 2.30759 7.10423 2.30759Z" fill="#F5F0F1"/>
</g>
</svg>
